<mxfile host="app.diagrams.net" modified="2023-07-19T11:47:39.100Z" agent="Mozilla/5.0 (Windows NT 10.0; Win64; x64) AppleWebKit/537.36 (KHTML, like Gecko) Chrome/114.0.0.0 Safari/537.36 Edg/114.0.1823.82" etag="_f7epx4NL3l32zb9BVCQ" version="21.5.0" type="device">
  <diagram name="Page-1" id="33WDi5XLdDV_sLuA29M8">
    <mxGraphModel dx="778" dy="536" grid="1" gridSize="10" guides="1" tooltips="1" connect="1" arrows="1" fold="1" page="1" pageScale="1" pageWidth="827" pageHeight="583" math="0" shadow="0">
      <root>
        <mxCell id="0" />
        <mxCell id="1" parent="0" />
        <mxCell id="Q9cHZoke4B1-z0n1rQTW-43" value="" style="edgeStyle=orthogonalEdgeStyle;rounded=0;orthogonalLoop=1;jettySize=auto;html=1;entryX=0;entryY=0.5;entryDx=0;entryDy=0;startArrow=classic;startFill=1;" parent="1" source="Q9cHZoke4B1-z0n1rQTW-41" edge="1">
          <mxGeometry relative="1" as="geometry">
            <mxPoint x="318" y="307.0000000000001" as="targetPoint" />
          </mxGeometry>
        </mxCell>
        <mxCell id="Q9cHZoke4B1-z0n1rQTW-41" value="User" style="points=[[0.35,0,0],[0.98,0.51,0],[1,0.71,0],[0.67,1,0],[0,0.795,0],[0,0.65,0]];verticalLabelPosition=bottom;sketch=0;html=1;verticalAlign=top;aspect=fixed;align=center;pointerEvents=1;shape=mxgraph.cisco19.user;fillColor=#005073;strokeColor=none;" parent="1" vertex="1">
          <mxGeometry x="14" y="282" width="50" height="50" as="geometry" />
        </mxCell>
        <mxCell id="Q9cHZoke4B1-z0n1rQTW-54" value="Region" style="points=[[0,0],[0.25,0],[0.5,0],[0.75,0],[1,0],[1,0.25],[1,0.5],[1,0.75],[1,1],[0.75,1],[0.5,1],[0.25,1],[0,1],[0,0.75],[0,0.5],[0,0.25]];outlineConnect=0;gradientColor=none;html=1;whiteSpace=wrap;fontSize=12;fontStyle=0;container=1;pointerEvents=0;collapsible=0;recursiveResize=0;shape=mxgraph.aws4.group;grIcon=mxgraph.aws4.group_region;strokeColor=#147EBA;fillColor=none;verticalAlign=top;align=left;spacingLeft=30;fontColor=#147EBA;dashed=1;" parent="1" vertex="1">
          <mxGeometry x="280" y="95" width="539" height="391" as="geometry" />
        </mxCell>
        <mxCell id="DCxlnjc3I_5zTgTbIcl2-90" value="" style="group" vertex="1" connectable="0" parent="1">
          <mxGeometry x="300" y="134" width="492" height="330" as="geometry" />
        </mxCell>
        <mxCell id="Q9cHZoke4B1-z0n1rQTW-40" value="MySQL RDS" style="image;sketch=0;aspect=fixed;html=1;points=[];align=center;fontSize=12;image=img/lib/mscae/Azure_Database_for_MySQL_servers.svg;container=0;" parent="DCxlnjc3I_5zTgTbIcl2-90" vertex="1">
          <mxGeometry x="420" y="210" width="50" height="65.84" as="geometry" />
        </mxCell>
        <mxCell id="Q9cHZoke4B1-z0n1rQTW-46" value="" style="edgeStyle=orthogonalEdgeStyle;rounded=0;orthogonalLoop=1;jettySize=auto;html=1;startArrow=classic;startFill=1;exitX=1;exitY=0.75;exitDx=0;exitDy=0;" parent="DCxlnjc3I_5zTgTbIcl2-90" target="Q9cHZoke4B1-z0n1rQTW-40" edge="1">
          <mxGeometry relative="1" as="geometry">
            <mxPoint x="298" y="243.0000000000001" as="sourcePoint" />
          </mxGeometry>
        </mxCell>
        <mxCell id="Q9cHZoke4B1-z0n1rQTW-47" value="VPC" style="points=[[0,0],[0.25,0],[0.5,0],[0.75,0],[1,0],[1,0.25],[1,0.5],[1,0.75],[1,1],[0.75,1],[0.5,1],[0.25,1],[0,1],[0,0.75],[0,0.5],[0,0.25]];outlineConnect=0;gradientColor=none;html=1;whiteSpace=wrap;fontSize=12;fontStyle=0;container=0;pointerEvents=0;collapsible=0;recursiveResize=0;shape=mxgraph.aws4.group;grIcon=mxgraph.aws4.group_vpc;strokeColor=#248814;fillColor=none;verticalAlign=top;align=left;spacingLeft=30;fontColor=#AAB7B8;dashed=0;" parent="DCxlnjc3I_5zTgTbIcl2-90" vertex="1">
          <mxGeometry width="492" height="330" as="geometry" />
        </mxCell>
        <mxCell id="DCxlnjc3I_5zTgTbIcl2-88" value="" style="group" vertex="1" connectable="0" parent="DCxlnjc3I_5zTgTbIcl2-90">
          <mxGeometry x="348" y="43" width="127" height="130.07" as="geometry" />
        </mxCell>
        <mxCell id="DCxlnjc3I_5zTgTbIcl2-16" value="" style="whiteSpace=wrap;html=1;aspect=fixed;" vertex="1" parent="DCxlnjc3I_5zTgTbIcl2-88">
          <mxGeometry x="7" y="-6" width="120" height="120" as="geometry" />
        </mxCell>
        <mxCell id="DCxlnjc3I_5zTgTbIcl2-17" value="Ubuntu OS" style="rounded=1;whiteSpace=wrap;html=1;" vertex="1" parent="DCxlnjc3I_5zTgTbIcl2-88">
          <mxGeometry x="18" y="92.16999999999999" width="94" height="17.9" as="geometry" />
        </mxCell>
        <mxCell id="DCxlnjc3I_5zTgTbIcl2-18" value="" style="rounded=1;whiteSpace=wrap;html=1;arcSize=5;" vertex="1" parent="DCxlnjc3I_5zTgTbIcl2-88">
          <mxGeometry x="20" y="8.930000000000007" width="92" height="74.07" as="geometry" />
        </mxCell>
        <mxCell id="DCxlnjc3I_5zTgTbIcl2-83" value="" style="shape=image;verticalLabelPosition=bottom;labelBackgroundColor=default;verticalAlign=top;aspect=fixed;imageAspect=0;image=data:image/png,iVBORw0KGgoAAAANSUhEUgAAAQAAAAEACAYAAABccqhmAAAAAXNSR0IArs4c6QAAGidJREFUeJztnb9/G9eVxc8d2BQpkfa4kDwAi8B/ganOnakuqUJ2m0pSl05Wl05Ul60kd+kkdduZqna3Et2lE92lC1KIGEnZz0IfIiYcB3O3ALDmDwAzwNw3bzBzvlU+Fjl4kTDnvXveue8BhBBCCCGEEEIIqQPiewAkH2EYhuvr62EQJDtJEoQB0FbRT0UkVNUQkBBAe/Lzcu5/T0OBzujnpKfQHgCIoKOqPVH5kIz+vDMcDnvv378/dvn/jbiHArAiRFHUDoJkR1XaIvIlVHYUGqa90K4RaC+BHAPaE5UfECTHP/+sHYrDakABKCFRFLUB7Irol4DsBNAdHc3kK8M5YTgW0e8pCuWEAlACoijaFdEdAF8HwO6qvexZGYkCjgB8ryrHcRwf+R5T3aEAeCCKoraI7qHiL3waE0EIVF4OgaM4jju+x1Q3KAAFEUXRbhDga6jsAbrjezzlRI4VyZGqvOTqoBgoAA4ZL+1/GwD36jrL56ADwVGS4AXFwB0UAGNGbj3uquKeb4e+QnQgeD4WA5YJhlAADBjvxe+J4K4Au77HU2UUOAoUL97E8XPfY6kCFIAcTGZ7Uf2GS/zCmZQIj7kqWB4KwBKMans84mxfEn4pD+gVLAgFYAH44peejigeszzIDgUgA9tRdE8Fj0BTb1WgEGSEAjAHvvgrD4UgBQrAFKIo2g0Ez8AXvypQCGZAATgHa/zK0/n5X8N9NiX9AgUA4+08kSeA7vkeCymA0a4Btw9RcwEIwzC8fn39Affxa4rg4OQkfux7GD6prQCwzidjOhgmD0/evTv0PRAf1E4AwjAMb2xsPFLoN77HQkpETcuChu8BFEmrdWtv7aOPXilNPnKVHRHsfbK5+eG036+NSViLFUAYhuH1jY1nNPlIJmq0Gqj8CiCKot21jz/6TwBf+R4LWRl2RLC39cn1v52e/uMvvgfjkkoLwHaz+UQEfwJAh58sSgjIv219sonT0/73vgfjikqWAON9/e949BYxopMo7lSxJAh8D8CaVuvWXkP0NV9+Ykg7EHm9HUX3fA/EmkqVANvN5hNAngKy7nsspHKsQ7BXtZKgEiVAGIbhxsb6d8zwkyJQ4EgV96tQEqy8AIzqfbwCE32kWCrhC6y0BxBF0e6o3ufLTwqnHYi8brVurXS2ZGU9gGbz8weByH+w3iceWV/1rcKVFIBWK3okkD/6HgchY3ZXVQRWTgBGTj/+4HschFxid3NrK+z3+//teyCLsFIC0GpFzwD83vc4CJmGAF9tfbLZPj3tv/Q9lqysxC4At/nIKqHA0dnZYL/X6/V8jyWN0gvAuJPvFZN9ZLWQ4x/Pzu6UXQRKLQB8+clqU34RKK0A8OUn1aDcIlDaINDGxjq7+UgF0J3Rd7mclHIXoNWKngmw0gkrQiYI0C7r7kDpBGC8z8+tPlI1dsqYEyiVALRa0SMw5EMqyjgnUKrEYGkEoNWKHkFx4HschDhmd3Nr60O/3/+z74EAJdkFaLVu7UGD0holhFgzbiU+8j0O7wIQRVG7IfqaV3OReiG9RPW27/MEvG4DTg7z4MtP6oeGgeBVGIZev/teBUB4Nx+pN23fGQFvJuCopx+VO2WVkEUQoO1ze9CLAIyPV37q47MJKRuj7cHrP/i4hahwE5CmX1nQngIvRPQoSYIeAARBEiIJ9lTwtbA0Kxg/pmDhAtBqRn8Fv1we0Z4ieNztdueuwFpRdADBo6JGRQBAjk+63dtFfmKhJcA46ceMvze0J0Fy5+Tk7WHaT572+0c3Njf/JsJ/rwKJivYDChOAUdhH/lTU55GrJCq/6XbfZU6g9fv9482tGx8E8muX4yK/IMBXNzY3v+/3+4WUAoWUALy8owQonp/E8f1lfrXZjF7xOLZC6fx4NrhdxBkCheQAggCPwJffKwnweNnfFUm+tRwLSaW9sXHtWREf5FwAtqPoHpT7/T5RxVEed3lt7Z9HAi3liTZVRSB7Rdw65FQAoihqK51k7yjwIs/vdzq9nqpwFVA02njmOirsVAC49PePAp04jp/nfc7a+oDBrcLRcGNjw+kE6kwARq4/l/7+sZm5O51eTwHv7at1Q6DfRFHkzIB1twLQ4ImzZ5PMqGrqnn/2Zy1vJJLlCQTOSgEnAjAO/HDp7xvFc8toaRzHRwp47V+vKe3r6+vfuHiwuQBEUdTm0V7lIMlp/k1D1P6ZJAMiD6IoMp9UzQVgbPwRz4zNP/OafW198JRbgj7QUETNy2pTAdjevrlD468cuKrXO51eDwi4CvCAQPasDUFTAdCkwYM9S4H0BoOBmfl3maGhsUgWQ4xzNWYCMD7kg8ZfGVA9dJkjH5uB3BL0gAC7lqsAMwFg4q885Mn9Z0VpBnojGJ2lafMsi4dw9i8PeXP/WVlfHxzSDPRGe/zO5cZEADj7l4e8uf+ssD/AL1bvXG4B4OxfHqxy/1lhf4BXTFYBuQWAs395KDqkw/4Av1i8e7kEgLN/uUiAwmb/CewP8Eo7745ALgHg7F8ijHP/WYnjmIeFeCRvLmBpARgrD2f/kuAi958VmoH+yJsLWFoAggB3l/1dYour3H9W2B/glzyrgKUEYNzxx8x/SfBdh7M/wC/jVcBSq/GlBIAdf2Uif+4/iqLc8VL2B/glWPKi3eVKAOUZ8aXBIPcfBLib10xif4BnRB4sc2rQwgLArb9ykTf3PynnBNjNf+yUvsz3+2R5NLyxvr7wMeILC0AiNP/KgkXuv3Huxp+8x05du/bTc5qB/ljm3VxIAKIoavOKqPJgkfu/kOUQeZDnWewP8IsAu81m81eL/M5CArCs0UDsscj9X81yaJjXDPSRRiS/IKoL3f+4WAnA5X9psMj9T8tyGJiBHZqBHlnwHc0sAEz+lYu8M+2sLIeFGeg7l1BzFuoPyCwATP6VCIPcf2OOl5PXDGR/gF9ENPNuQPYSgHv/pcEi9z+3kWvJPeULz6cZ6A1BkHmyziQAXP6XB4vcf/q/p4bX19ZyCT77A3yS3czNJAANEef3lJNsWNTXWco5bQQWW4IMBnkiyLhdn7EESL7OMxhihUnuP1Mjl8Xx09wS9IeK/jbLz6UKQBRFbYXs5B8SyY1B7n+e+XeZRcykabA/wB8C2ckSCkoVgEW+MMQtFuf9L3KKkyC4y/6AlWY/7QdSBSDrUoK4xSL3v7iZq+HGxkau9Cf7A3ySpE7eqQLA7H85sMj9L5flyDcBsD/AH4Ig1bubKwBRFO0qJOcSkOTFKPe/1ClOFmagNIY8LMQL6duBcwVARGn+lQLJ/QLl8XLymoFv3rw/phnoB5H5Bv58AQC4/VcCVDX3EjrPEe4WZiD7A3wx3wdIEwDW/74xyP3nT3LmNwPZH+CHNB9gpgBsb9/cYf3vH4vcv00jV/7dIJqBPtBwXh5gpgCoCrP/njHK/Zsc4W5hBrI/wA+B6p2ZfzbrD0QbXP57xqJutgxy5V1J8DJRPyRzzPyZApBAv3QzHJIN6cHgZTG9v1FlL68ZmLAM8IDMfJdnCkAAbgF6RfXQv/l3GQ0tDgvhKqBYZE4vz1QBoAHoH4vcv5NTnEyi4ewPKJbZRuBUAaAB6Bej3L+j+xtlJ68ZyP6A4hkOh7en/ffpJUAScPnvEYvcv8suzrwnB7M/oHgajcbUSX26AAgNQF9Y5P4BY/PvEhYnB7M/oFhEp7/T00sA1v8eyZ/7L+IMx7xmIPsDikVnbAVOFQDuAPjDIvdfyBHuOa8RA9gfUCQyY1LnCqBM2OT+HZl/l8l/jRj7AwqlPa1suyIA29s3Oft7wiL3X+QRbnnNQID9AUWysbHx6eX/dkUAhsMGZ38PWOT+Abfm32UszMC19cFTq/GQ+UzbCrwiAA1eAOIFi3rYxwUuec3ATqfXA5Q7AgXwcRCklwBKAfCATe7fy/2NBmYg+wOKYdq7fUUARGgAFo5N7r8g8+8yNmYgtwTdo6IZVgB69YeIWyxy/z7vb7AwA9kf4B5RSTcBVZB6mwixwyL3DxRr/l1GgN2bN/PtHrE/wD0q+tnl/5b9enDiBIvcfxlub/640ch1cvDIDAxy/12QOWRZAQRgCVAUVrn/OI6P4DtVJ/Ig75bgULkb4BKRDCYgU4DFIWpnfJ3E8QEk2VcgdzmxHBpeX1ujGbhisATwiIX5d56Tk3eHqrjjSwS0EbA/YMWYJgDMARSBQe5/GnEcd65dG9wWFL+3bnFyMPsDnJJeApBisMj9z6LT6fXedLvf+PAF8l4jBrA/oEgoAB6wyv2ncRLHBxIMbxdZElhcI8b+gOKgAHigyDr3zZv3x6q4A+hxMZ+Y/xox3h9QHBQAPxT65Y7juHPSfXu7uJLA4hoxmoFFQAEoGkfmXxZO4vhAoQ9dm2xWZiBXAe6hABSM9dbfonS7b58OVZz7AhZmIPsD3EMBKBCr3H9e4jjujHyB/AeQzsLCDGR/gHumCYD3L2hVscj9WzHyBbr77nwBGzOQ/QGmXHm3uQIoCKvcvzVuI8T5zUD2B7iFAlAQlrl/a1xFiGkGlgudUk5NOxKMJYADLMy/7e2bO81m84nFeC4ziRBDbcsUEc3dHyCSMBlogUq6ANB0cYDR1p9q44FAv2k1m6+jKDLv2eh0er2TOL5n6QsIgtwnB5+cvDvk99INV0sAlQ8exlFpLHL/7XYYik621nQnELxyIQKAdYRYw7wnBwPsD7BAspiAIleXCWR5rHL/Pw/W9y6d1dAOBH9tNpu5X65pmEaIJf9pxewPyI+KXpncpx0KSgEwxCzSOqOWFuiTVitych7gJEJs0FrczmsGsj8gP5LNA6AJaEzuL+329s0dhcw+dFNx0GxGzkqCN93uNwp9mOcZNteIsT8gD5lKAA0SrgCsMDT/0n5GgF2XvkC3+/ZpovhiWV/A4hqxUSlVVFdj9RhmEYAkCfgXbITF1t9F8y/9xwOR1658gbwRYhMzsERpylVjOBymlwDr6wOuAAywyv1PMf/SPjl07wssGSE2uEaM/QHL8/79+yuT+xUBGOWv6QPkxWymWjZIozhoNj//zuVWISTZX+xlzH+NGPsDlmX67t7UKDAVNh9Wuf9U8y8Fgew5zQucvDtctLXYwgxkf8DiqE73TqYKgKr84HY41cYq95/F/MtAOxB53WrdMujPv8qiEWIrM5BbggsyJQMAzBIAodOaBw/mXwoaQoPvXPkCi0aILcxA9gcshqhkXwGIKD2AJVHoSz/mXwbGvkDeGXgWmSPEBmbg2to/eX/AAvwrSbILALcCl0dVbCKrBl10Ux8L2bu+se6kmQjIGiG2MQPZH5Ad1emT+lQBiOO4Q3VdHKvcf17zLwPtQPDKpS+QFiG2MAPZH5AV6U3bAgTmHAiSYHrNQGZjFVU1Mv/SaLv0BYD5EWIBdm/evJlL5NgfkI1ZOwDAHAEIwJ2AJbD5MipyLY8X/KyDVit65soXmBch/rjRMLhGjP0BqYjOfJdnHwk2RzXIFIxy/9tRdA9FX9CquOfSF5gZIRZ5wP4A9wyHOnNimikAQy6tFuLn4dDEkEoMeueXpD0ODTlZfUyPEOc/OXj0GOH9AXOYZQACcwSARmB2VHE0y2RZhCiK2oICl/9XGZuD7nyBqxHi/CcHr60PnvK7OovZBiCQciowDZZsWOX+gyC/M26C4sDV4aPAxQixxcnB7A+YjSL5ft6fpwnA3F8mxuf9F2n+pTA6fDT6q0tfYBIhtrhGjP0BswjmTuLzBWBGfJD8glXu34v5l047ELzKu103i/+PEAMd9ge4Yd4WIABI2gO2m5//r3kktUIkii8s3P9mM3rluf6fi0IedrvdUgdvoii6Fwie+R5HeZDeSbf72byfSL0ZiKo6G6vcfwnMv1QE+sSlL2DB+vqA9wecI63+B7IJAH2AGVjl/ktj/qXg8lISC9gfcBHV9KPb0gUgw0PqiFXuf/ywUs/+F3F7KUle2B9wgdTvZ6oAjPMANAMvYRVBLan5l4bTS0nywP6AEQo9zlKeZrodWJm0mobJl8xj8i83Lg8fzQP7AwBkLN0zCUBCRb2IUe5/Fcy/VBQHZfMFxluCtT7UJmvpnkkA4jjm6SvnsMr9r4r5l075fAExvuZ8lVjEn8okAOMfre1f6Hmscv+jh6347H8Rp5eSLEqd+wMWCadlFgBGLUdY5f5X1PxLwe2lJItQ5/6ARa6jzywA4yVFvesqw9z/Kpt/qTi+lCQrdZy0Ft2eXqAEALKe/V5VrHL/lTD/UnB9KUkW6tgfsKj3sZAAJIBN19uKYnHeP1Al8y+VdiDyelzueEJrtYW96Du6kADEcdypm6JOsMr9jx9W6dn/Ihqq4JkvX6BOl4kucyHtYiUAgKCmZYBV7r+a5l8GHF9KMos69QcsY1AvLAAf17DjyjL3X2nzLwXXl5LMog79Acsa1AsLQJ0UdYJVtLQO5l8GnF5WOo069Acsa1AvLABALc1Aky9Pjcy/FNxeVjr1EyveH7CsQb2UANTKDDTK/Y+fVffZ/yKOLyU5T6Xj7Dm+o0sJAFB9RZ1glfuvrfmXhuNLSS5SzWTgIsm/yywtAHUIWSj02Cr3X2fzLwNOLyWZoDKs3Pc1r0G9tAAA1V8FWJmdNP8y4fxSkiQJKlcC5H0HcwlAlfuuLXP/NP8WwPGlJFXC4juaSwCA6q4CrHL/AGj+LYjrS0mqgsW7l1sA4jh+XsVVgFXun+bf0phfStIQKSx74BqrFWpuAQCqtwqwzP3T/MtF++OPGq+tfAE1uIi0LFi9cyYCULVVwHCoJrU/zT8jDHyBZvPzB6jISszUn7J4CACo4r7Vs3yiQOfdu3cmB0nQ/LMjz6UkURS1A+DAxbh8YLniNhOAquQCTMsZmn/GjA4fXeR8gSiKdgPBq6rcb2l6GzUyXA66CJO/bMtnFo7icWJQzjREvlRoKQ7IrCSC50mCx7O8mjAMwxsbG4+q9m/w87+Gt80OpYWxAABAq9n8Dsh/3zshWVDgSBTfJ0BHREMAvwJkp5Lei+L5SRybltrmAhBFUbsh+roqSy5CyoLVVfTnaVg+DAD6/X5va3NrA1JBBSbEF4rH3Tg2P+XYfAUAAO12GP700/prqci2CyE+UaDT7cZfuHi22S7AeUanBlVjW5AQ34gkD10927wEmNDv9zufbG19BuArV59BSOVRPD/pvv13V493sgKY8PG1s4PKnsJCiGMU6Fj1pMzCqQB0Or2eirIUIGQJVGfnHKxwKgAAcHLy7hDIdlc5IWTM6Jw/54fvOhcAAFi7dna/Ss1ChLikiKX/hEIEgLsChGRHJHnoeuk/wdkuwGW4K0BIBhSPT7pv/1TUxzkJAs2j1fz8NSBmp7wQUhVcBn5mUUgJcJ5EZZ9bg4RcRnuquFP0pxYuAHEcd7g1SMhFEpXC6v7zFOYBnOf09B9/oR9AyJhRo4+XG4wL9wDO02xGryrZt01IRlRx1I3jwpf+EwovAc5z7dpgn/kAUlcU6Cj8bo97XQEAPECE1BXtJSq3fdT95/G6AgBGpuBQZd/3OAgpFNH7vl9+wJMJeJl+v9/Z3LrxQSC/9j0WQpxTcNhnHqUQAADo9//x563NTeFRYqTSKB6fxHFp7igojQAAwGm/f8TtQVJVFPptN377B9/jOE+pBAAATvv9/9r6ZPMLAIwLk+qgeNGN3/7e9zAu430XYBbMCJCq4Huvfx7edwFmce3aYB9QsxtQCPGDHJ8NBqXd5SrtCgAYHS/+z5+uvWL3IFlN5PjHs7M7vV6vtM1vpRYAgCJAVpXyv/xAiUuACZ1Or7d27ac7Vbh5mNQDVRytwssPrMAK4DytVvQciru+x0HITBQvTuI48/XlvindNuA8Tk/7h8wJkLIy3ucv3VbfPFZKAIBxToCJQVI2FI/LFvLJwsoJADBKDFIESFlQyMNuHP/R9ziWYaU8gMu0Wrf2ROUZW4mJH7SXqOzHcbyyBvVKCwAwOk9ABK94FTkpEgU6qrhThpbePJR+GzCNOI47quA2ISkMVRydnQ28H+ZhwUp6AJfp9/u9fr//gr4Acc3Y6f/dYDAY+B6LBZUQgAmn/f7Rjc3NvwWiu4Cs+x4PqRLag+jvut13Xk7vdcXKewDToC9AbJHjRHW/Ckv+y1RqBTBhXBJ8y5KA5EWh33a78X6/3y99rHcZKikAE077/aOtT67/oJCvBOBWIcnM2OXfj+NynN3nikoLADC6hWhzc/OlAJ9BeMoQyYIcnp0NfvP3v//9L75H4ppKegCziKLongge0Rsg09EeRO+fnLw79D2Soqj8CuA8/X7/mKsBMg2Ffnt29tP++/f/U6tTqGq1AjhPq3VrTzV4wtVAvRnX+vdXOc6bh9oKwIRWFB1A8Mj3OEjRaA8q3/44GDxdhYM7XFF7AQBGuYEAOIDwsJF6IIeJ6sMq7usvCgXgHNvbN3eSpPEdy4JqooojBR7Xdbk/DQrAFLhbUC3qXufPgwIwBwrBajN+8R/Hcfzc91jKCgUgAxSC1YIvfnYoAAtAISg3rPEXhwKwBFEU7QbAPe4alAO++MtDAcjBZPtQBV9zVVA0o338BHjO7bzloQAYEUXRPQHuCtuPnTKe7V8MBoPDOgd4rKAAGDNeFdxTwV2uCmxQRUeAF5zt7aEAOGTiFbBEWAbtKfBCVQ5Z27uDAlAQURTtiuieAF/zpuNZ6DFUXibAEV/6YqAAeCCKojaA3UDkt0Cyi9pebKI9IDhSJN+PZ3ou7wuGAlACxquDHUHwdbUF4cILf8xZ3j8UgBKyvX1zR1XaqrILlS9FdGf1REF7qnIM0R9U5RijZT1n+JJBAVgRJqKAJNiByJeqGpZBGFTREdEeVI5V9AcR7SRJcMyXfTWgAFSA7e2bO8NhIwTQDoC2ioai8qmOdx5ENFQdCYXI/N0IVZx/cTsi0oNqT0U/iEovATpBkPSSJDgeDAY97sUTQgghhBBCCCGElJ//A9IEhDtCffrdAAAAAElFTkSuQmCC;" vertex="1" parent="DCxlnjc3I_5zTgTbIcl2-88">
          <mxGeometry x="42" y="19.5" width="49" height="49" as="geometry" />
        </mxCell>
        <mxCell id="DCxlnjc3I_5zTgTbIcl2-85" value="" style="image;aspect=fixed;html=1;points=[];align=center;fontSize=12;image=img/lib/azure2/compute/Virtual_Machines_Classic.svg;" vertex="1" parent="DCxlnjc3I_5zTgTbIcl2-88">
          <mxGeometry y="100.07" width="32.34" height="30" as="geometry" />
        </mxCell>
        <mxCell id="DCxlnjc3I_5zTgTbIcl2-93" value="" style="edgeStyle=orthogonalEdgeStyle;rounded=0;orthogonalLoop=1;jettySize=auto;html=1;entryX=0;entryY=0.25;entryDx=0;entryDy=0;startArrow=classic;startFill=1;" edge="1" parent="1" source="DCxlnjc3I_5zTgTbIcl2-91" target="Q9cHZoke4B1-z0n1rQTW-54">
          <mxGeometry relative="1" as="geometry">
            <mxPoint x="328" y="317" as="targetPoint" />
            <mxPoint x="74" y="317" as="sourcePoint" />
          </mxGeometry>
        </mxCell>
        <mxCell id="DCxlnjc3I_5zTgTbIcl2-94" value="terraform apply" style="text;html=1;align=center;verticalAlign=middle;resizable=0;points=[];autosize=1;strokeColor=none;fillColor=none;" vertex="1" parent="1">
          <mxGeometry x="148" y="169" width="100" height="30" as="geometry" />
        </mxCell>
        <mxCell id="DCxlnjc3I_5zTgTbIcl2-96" value="" style="group" vertex="1" connectable="0" parent="1">
          <mxGeometry x="15" y="163" width="110" height="58.01999999999998" as="geometry" />
        </mxCell>
        <mxCell id="DCxlnjc3I_5zTgTbIcl2-82" value="" style="shape=image;verticalLabelPosition=bottom;labelBackgroundColor=default;verticalAlign=top;aspect=fixed;imageAspect=0;image=data:image/png,iVBORw0KGgoAAAANSUhEUgAABAAAAAQACAYAAAB/HSuDAAAAAXNSR0IArs4c6QAAIABJREFUeJzs3UFSW2maNeD3XuAOM3LqsJwBOzArKDHr6GhkM+tO4yh5BcYrQKzA9gqsisCUZ1Aoo+KfoR3gHUB0JfaU6FEZI33/AClNVtlpsCVdSfd5NpDvLK3DPeeLqKhHD85e/fd/nCyXfQcAAABMQlb2AWXZbJyliIgU2YvexYeXb/7fymnZNwEAAMC45GUfULYs0tZSURz9vP5rs+xbAAAAYFwq/wXAdVnEaer3n+z+cq9bxk0AAAAwLpX/AuC6FLEceX5kHwAAAIB54wuAP5S3Fv/vny/b3ZXz8V8EAAAA4+MLgD/Ub/V+KI7tAwAAADDrfAFwQ1nE6ceLizWvBQAAADCLfAFwQyliebEoTuwDAAAAMIsEALeUpWguFsXxZuP9dtm3AAAAwE2pAHyHLOK0l9LOXqfWHsVNAAAAMC4CgFFI2cHlxw/P7AMAAAAwrVQARiFLD+0DAAAAMM0EACOUpWguFcWRZwMBAACYNioAY5JFnF6m3rO/dn46GOd/BwAAAG7CFwBjkiKWF7KFfbUAAAAApoEvACYmb11e/PMvhgIBAAAogy8AJqbfsg8AAABAWXwBUIIs4rR3mTb2/l57W9YNAAAAVIsvAEqQIpbzxezYPgAAAACTIgAoUZaiuVgUJ5uN99tl3wIAAMB8EwBMhX7rcePsxD4AAAAA42IDYPq8vby42PBaAAAAAKPkC4Dpc3+xKE7sAwAAADBKAoAplaVoLhXFkX0AAAAARkEFYAZkEae9lHb2OrV22bcAAAAwmwQAsyRlB5cfPzyzDwAAAMBtqQDMkiw9tA8AAADAtxAAzKDhPoBnAwEAALgpFYAZl0WcXqbes792fjoo+xYAAACmly8AZlyKWF7IFvbVAgAAAPgjvgCYO3lr8f/++bLdXTkv+xIAAACmhy8A5k6/1fuhOLYPAAAAwHW+AJhjWcTpx4uLNc8GAgAA4AuAOZYilj0bCAAAQIQAoBKyFM3FojjZbLzfLvsWAAAAyiEAqJR+63Hj7MQ+AAAAQPXYAKiqlHUvP354Yh8AAACgGnwBUFVZqtsHAAAAqA4BQMVlKZpLRXH0aP3dVtm3AAAAMD4qAPwmizjtpbSz16m1y74FAACA0fIFAL9JEct5lr1SCwAAAJg/vgDgi1JkL3oXH14aCgQAAJh9vgDgi7JIW0tFceTZQAAAgNnnCwBuJIs4Tf3+k91f7nXLvgUAAIDb8wUAN5IiliPPj+wDAAAAzCZfAPCN8tbi//3zZbu7cl72JQAAAHydLwD4Rv1W74fi2D4AAADAbPAFAN8tizj9eHGx5rUAAACA6eULAL5bilheLIoT+wAAAADTSwDAyGQpmotFcbzZeL9d9i0AAAD8ngoAY5FFnPZS2tnr1Npl3wIAAIAAgHFL2cHlxw/P7AMAAACUSwWA8crSQ/sAAAAA5RMAMBFZiuZSURx5NhAAAKAcKgBMnH0AAACAyfMFABOXIpbzLHulFgAAADA5vgBgCuSty4t//sVQIAAAwPj4AoAp0G/ZBwAAABgvXwAwVbKI095l2tj7e+1t2bcAAADME18AMFVSxHK+mB3bBwAAABgtAQBTKUvRXCyKk83G++2ybwEAAJgHAgCmXL/1uHF2Yh8AAADg+9gAYJa8vby42PBaAAAAwO35AoBZcn+xKE7sAwAAANyeAICZk6VoLhXFkX0AAACAm1MBYKZlEae9lHb2OrV22bcAAABMMwEA8yFlB5cfPzyzDwAAAPB5KgDMhyw9tA8AAADwZQIA5spwH8CzgQAAAL+nAsDcyiJOL1Pv2V87Px2UfQsAAEDZfAHA3EoRywvZwr5aAAAAgC8AqJS8dXnxz78YCgQAAKrIFwBUSL9lHwAAAKgqXwBQSVnE6ceLizVfAwAAAFXhCwAqKUUsezYQAACoEgEAlZalaC4Wxclm4/122bcAAACMkwAAIiKi33rcODuxDwAAAMwrGwDw795eXlxs2AcAAADmiS8A4N/dtw8AAADMGwEAfEGWorlUFEeP1t9tlX0LAADA91IBgBvIIk57Ke3sdWrtsm8BAAD4Fr4AgBtIEct5lr1SCwAAAGaVLwDgG6TIXvQuPrw0FAgAAMwKXwDAN8gibS0VxZFnAwEAgFnhCwD4TlnEaer3n+z+cq9b9i0AAABf4gsA+E4pYjny/Mg+AAAAMM18AQAjl7cW/++fL9vdlfOyLwEAABjyBQCMXL/V+6E4tg8AAABME18AwBhlEacfLy7WvBYAAACUzRcAMEYpYnmxKE7sAwAAAGUTAMAEZCmai0VxvNl4v132LQAAQDWpAMCEZRGnvZR29jq1dtm3AAAA1SEAgLKkrHv58cMT+wAAAMAkqABAWbJUtw8AAABMigAASpalaC4VxZFnAwEAgHFSAYApYh8AAAAYF18AwBRJEct5lr1SCwAAAEbNFwAwxVJkL3oXH14aCgQAAL6XLwBgimWRtuwDAAAAo+ALAJgRWcRp7zJt7P299rbsWwAAgNnjCwCYESliOV/Mju0DAAAA30IAADMmS9FcLIqTzcb77bJvAQAAZocAAGZWv/W4cXZiHwAAALgJGwAwH95eXlxseC0AAAD4El8AwHy4v1gUJ/YBAACALxEAwBzJUjSXiuLIPgAAAPCvVABgTmURp72UdvY6tXbZtwAAAOUTAMC8S9nB5ccPz+wDAABAtakAwLzL0kP7AAAAgAAAKmK4D+DZQAAAqCYVAKigLOL0MvWe/bXz00HZtwAAAJPhCwCooBSxvJAt7KsFAABAdfgCAIiIvHV58c+/GAoEAID55QsAICL6LfsAAAAw33wBAPxOFnHau0wbe3+vvS37FgAAYHR8AQD8TopYzhezY/sAAAAwXwQAwGdlKZqLRXGy2Xi/XfYtAADA9xMAAF/Rbz1unJ3YBwAAgNlmAwC4jbeXFxcbXgsAAIDZ4wsA4DbuLxbFiX0AAACYPQIA4NayFM2lojh6tP5uq+xbAACAm1EBAL5LFnHaS2lnr1Nrl30LAADwZb4AAL5LiljOs+yVWgAAAEw3XwAAI5Uie9G7+PDSUCAAAEwXXwAAI5VF2loqiiPPBgIAwHTxBQAwNlnEaer3n+z+cq9b9i0AAFB1vgAAxiZFLEeeH9kHAACA8vkCAJigvLX4f/982e6unJd9CQAAVI0vAIAJ6rd6PxTH9gEAAGDyfAEAlCKLOP14cbHmtQAAAJgMXwAApUgRy4tFcWIfAAAAJkMAAJQqS9FcLIrjzcb77bJvAQCAeaYCAEyNLOK0l9LOXqfWLvsWAACYNwIAYPqkrHv58cMT+wAAADA6KgDA9MlS3T4AAACMlgAAmFpZiuZSURw9Wn+3VfYtAAAw61QAgJlgHwAAAL6PLwCAmZAilvMse6UWAAAA38YXAMBMSpG96F18eGkoEAAAbsYXAMBMyiJtLRXF0c/rvzbLvgUAAGaBLwCAmZdFnPYu08be32tvy74FAACmlS8AgJmXIpbzxezYPgAAAHyZAACYG1mK5mJRnGw23m+XfQsAAEwbAQAwh/qtx42zE/sAAADwiQ0AYN69vby42PBaAAAAVecLAGDe3V8sihP7AAAAVJ0AAKiELEVzqSiO7AMAAFBVKgBA5WQRp72UdvY6tXbZtwAAwKQIAIDqStnB5ccPz+wDAABQBSoAQHVl6aF9AAAAqkIAAFTecB/As4EAAMwzFQCAa7KI08vUe/bXzk8HZd8CAACj5AsAgGtSxPJCtrCvFgAAwLzxBQDAH8pblxf//IuhQAAAZp0vAAD+UL9lHwAAgHngCwCAG8oiTnuXaWPv77W3Zd8CAAC35QsAgBtKEcv5YnZsHwAAgFkkAAC4pSxFc7EoTjYb77fLvgUAAG5KAADwzfqtx42zE/sAAADMAhsAAKPx9vLiYsNrAQAATCtfAACMxv2rWsA/WmUfAgAAnyMAABillP2p7BMAAOBzBAAAAABQAQIAAAAAqAABAAAAAFSAAAAAAAAqQAAAAAAAFSAAAAAAgAoQAAAAAEAFCAAAAACgAgQAAAAAUAECAAAAAKgAAQAAAABUgAAAAAAAKkAAAAAAABUgAAAAAIAKEAAAAABABQgAAAAAoAIEAAAAAFABAgCAObH5X/+o//d/nCyXfQcAwDSr1/d/rNc7T8u+owwCAIB5kUd9sShONhvvt5v1kx/LPgcAYNrU6/v1iIXjiLRV9i1lEAAAzJ1+q/dDcfzz+q/Nsi8BAJgG9fr+/Xr98Chi4SgiKvvF5GLZBwAweiliOc+yV48bZ9sfLy7W3vy/ldOybwIAmLR6ff/HiIXtiKjkX/z/lS8AAOZYilheLIqTRw/OXtkHAACq5Krnv3ASfvz/RgAAUAFZiuZiURxvNt5vl30LAMA41ev79Xq9cxyRXkSEXaRrVAAAquPHiH7rceOs2UtpZ69Ta5d9EADAqNTr+8sRC68ioh6Ryj5nKgkAACpmuA+wuf7uweXHD8/sAwAAs+yq57/4dLDs7y/+f0AFAKCqsvTQPgAAMMvq9f3mVc8/tcKP/68SAABUXJaiuVQUR54NBABmxVXP//Bo8Mm/H/43JAAA4PqzgSf/s/6/D8u+BwDgc+r1/eV6/fBVxMJRRNTLvmfW2AAA4DcpYnkhW9h/9OCs3ftwsWMfAACYBnr+o+ELAAD+zeDZwJPNxvtt+wAAQJnq9f16xMKxnv/3EwAA8Af6LfsAAEAZ6vX9+4Oe/1FE+IPECKgAAPCHru0DbH+8uFhTCwAAxunqc/+F7YjYKvuWeeMLAABuJEUsezYQABiner3z9OpZPz/+x0EAAMCtDPYBjjcb77fLvgUAmA+DZ/1OItKL0PMfGxUAAL7FjxH91uPGWbOX0s5ep9Yu+yAAYPbU6/vLEQuvwpN+EyEAAOCbDfcBNtff/fny44cn9gEAgJu49qxfq+xbqkQFAIDvl6W6fQAA4CY+9fz9+J80AQAAI5OlaC4VxdGj9XeGewCA3xn0/I/0/MujAgDASKWI5SxLzx83zp7aBwAABj3/5xHxsOxbqk4AAMBYDPcBHj04+1Pvw8WOfQAAqJZrPf+t8Bf/qaACAMBYDZ4NPHnUePfcPgAAVEO9vv8wYuF40PP3439KCAAAmIgs0tZSURz9vP5rs+xbAIDx+NTzX9iPCMH/lFEBAGBihrWAx42z7d5l2tj7e+1t2TcBAN/v6nP/he2IMAQ8xXwBAMDEpYjlfDE79mwgAMy+er2zffWsnx//004AAEBphvsAm43322XfAgDczuBz/xM9/9mhAgDAFOi3HjfOmp4NBIDpN3jW71VE1Mu+hdsRAAAwFYb7AJuNs6eXFxcbng0EgOmi5z/7VAAAmDb3F4vixD4AAEyPer3zVM9/9gkAAJhKWYrmUlEc2QcAgPJ8etYvvQg9/5mnAgDA1EoRy/YBAGDy9PznkwAAgKk33Ad49ODsT70PFzv2AQBgPK56/otPI9JW+Iv/3FEBAGBmDJ8NtA8AAKNXr+83IxaOPes3vwQAAMyc4T7Az+u/Nsu+BQBm3aee/8KriBCwzzEVAABm0rAW8Lhxtp36/Se7v9zrln0TAMySwbN+zyNCoF4RAgAAZlqKWI48P3r04KxtHwAAvk7Pv7pUAACYC8N9gM3G++1m/cQ/ZgDgM+r1/bqef3UJAACYM/1W74fi2D4AAHxSr+/fH/T8j0LPv7JUAACYO9f3AT5eXKypBQBQVYOe/3ZEbJV9C+XzBQAAcytFLHs2EICqqtc7TyMWTsKPfwYEAADMvcE+wPFm4/122bcAwLhdPevXOY5IL0LPn2tUAACoih8j+q3HjbNmL6WdvU6tXfZBADBK9fr+csTCq4ioR6Syz2EKCQAAqJThPsDm+rsHlx8/PLMPAMCs86wfN6UCAEA1ZemhfQAAZl29vt+86vl71o+vEwAAUGlZiuZSURx5NhCAWXLV8z88Gnzy74c/NyIAAKDyrj0bePI/6//7sOx7AOBL6vX95Xr98FXEwlFE1Mu+h9liAwAABlLE8kK2sP/owVm79+Fixz4AANNCz59R8AUAAPyLwbOBJ5uN99v2AQAoW72+/zBi4VjPn+8lAACAL+q37AMAUJZrPf/9iBBI891UAADgD1zbB9juXaaNvb/X3pZ9EwDz7epz/4XtiNgq+xbmiy8AAOAGUsRyvpgdezYQgHGq1zvbV8/6+fHP6AkAAOAWru8DlH0LAPNj8Ln/iZ4/46QCAADfpN963Dhr9lLa2evU2mVfA8Bsqtf3lyMWXoUn/ZgAAQAAfKPhPsBm4+zp5cXFhmcDAbipa8/6tcq+hepQAQCA73d/sShO7AMAcBP1eufpVc/fj38mSwAAACOSpWguFcXRo/V3hpsA+DefnvVLL0LPnxKoAADACKWI5SxLzx83zp7aBwAg4ree//OIeFj2LVSbAAAAxmC4D/Dowdmfeh8uduwDAFTPtZ7/VviLP1NABQAAxmj4bOCjxrvn9gEAqqNe338YsXDsWT+miQAAACYgi7S1VBRHP6//2iz7FgDG51PPf2E/IgS/TBUVAACYkGEt4HHjbLt3mTb2/l57W/ZNAIzG1ef+C9sRYQiWqeULAACYsBSxnC9mx54NBJgP9Xpn++pZPz/+mW4CAAAoyXAfYLPxfrvsWwC4vcHn/id6/swKFQAAKF2/9bhx1vRsIMBsGDzr9yoi6mXfArchAACAKTDcB9hsnD29vLjY8GwgwPTR82fWqQAAwHS5v1gUJ/YBAKZLvd55qufPrBMAAMAUylI0l4riyD4AQLmuev6d44j0IvT8mXEqAAAwpVLEsn0AgHL8vuefyj4HRkIAAABT7rd9gPV3Dy4/fnhmHwBgfK56/otPI9JW+Is/c0YFAABmRZYe2gcAGJ96fb951fP3rB/zSQAAADNmuA/w8/qvzbJvAZgHVz3/w6PBJ/9++DO3VAAAYAYNawGPG2fbl6n37K+dnw7Kvglg1gye9XseEQJVKkEAAAAzLEUsL2QL+48enLV7Hy527AMAfJ2eP1WlAgAAcyBL0VwsipPNxvvtZv3EP2YBvqBe369HLBzr+VNFAgAAmCv9Vu+H4tg+AMDv1ev79wc9/6OIMKRKJakAAMCcub4P8PHiYk0tAKiyQc9/OyK2yr4FyuYLAACYUyli2bOBQJXV652nV8/6+fEPEQIAAJh7g32A483G++2ybwGYhMGzficR6UXo+cNvVAAAoBp+jOi3HjfOmr2UdvY6tXbZBwGMWr2+vxyx8Coi6mXfAtNIAAAAFTLcB9hcf/fny48fntgHAOaBZ/3gZlQAAKCKslS3DwDMg089f8/6wdcIAACgwrIUzaWiOPJsIDBrBj3/Iz1/uDkBAABU3LVnA08EAcC0q9f3l+v1w1cRC0eh6w+3YgMAAIiIT0HAowdnf+p9uNixDwBMEz1/+H6+AAAAfmfwbODJZuP9tn0AYBrU6/sPIxaO9fzh+wgAAIAv6LfsAwBl+tTzX9iPCIEkfCcVAADgi67tA2z3LtPG3t9rb8u+CZh/V5/7L2xHxFbZt8A88QUAAPBVKWI5X8yOPRsIjFu93tm+etbPj38YNQEAAHBj1/cByr4FmC+Dz/1P9PxhfFQAAIBv0G89bpw1eynt7HVq7bKvAWZXvb6/HLHwKjzpB2MnAAAAvslwH2Czcfb08uJiw7OBwG1ce9avVfYtUBUqAADA97q/WBQn9gGAm6rXO0+vev5+/MMkCQAAgJHIUjSXiuLo0fo7w13AZ3161i+9CD1/mDgVAABgZFLEcpal548bZ0/tAwBDg57/84h4WPYtUGUCAABg5Ib7AI8enP2p9+Fixz4AVNO1nv9W+Is/lE4FAAAYm+GzgY8a757bB4Bqqdf3mxELx571g+khAAAAxi6LtLVUFEc/r//aLPsWYLw+9fwXXkWE4A+miAoAADARw1rA48bZdur3n+z+cq9b9k3A6Fx97r/wPCIEfTClBAAAwESliOXI86NHD87a9gFg9un5w+xQAQAASjHcB9hsvN9u1k/8aIAZVK/v1/X8YXYIAACAkvVbvR+KY/sAMDvq9f3lQc//KPT8YWaoAAAApbu+D/Dx4mJNLQCm06Dnvx0RW2XfAtyeLwAAgKmRIpYXi+Lk0YOzV54NhOlSr3eeRiychB//MLMEAADA1MlSNJeK4miz8X677Fug6q6e9escR6QXoecPM00FAACYSiliOaLfetw4a/ZS2tnr1Npl3wRVUq/vL0csvIqIekQq+xxgBAQAAMBUG+4DbK6/e3D58cMz+wAwXp71g/mlAgAAzIYsPbQPAONVr+83r3r+nvWDeSQAAABmynAfwLOBMDpXPf/Do8En/374w5xSAQAAZs71ZwMvU+/ZXzs/HZR9E8yiwbN+zyNCoAYVIAAAAGZWilheyBb2Hz04a/c+XOzYB4Cb0fOHalIBAABmXpaiuVgUJ5uN99vN+okfM/AH6vX9esTCsZ4/VI8AAACYI/1W74fi2D4A/Lt6ff/+oOd/FBGGNKGCVAAAgLlyfR/g48XFmloAVTfo+W9HxFbZtwDl8gUAADCXUsSyZwOpunq98/TqWT8//gEBAAAw5wb7AMebjffbZd8CkzJ41u8kIr0IPX9gQAUAAKiCHyP6rceNs2YvpZ29Tq1d9kEwDvX6/nLEwquIqJd9CzB9BAAAQGUM9wE219/9+fLjhyf2AZgX1571a5V9CzC9VAAAgOrJUt0+APPiU8/fj3/gjwkAAIDKylI0l4ri6NH6OwNpzJxBz/9Izx+4KRUAAKDSUsRylqXnjxtnT+0DMAsGPf/nEfGw7FuA2SIAAACIT/sAjx6c/an34WLHPgDT5lrPfyv8xR/4BioAAADXDJ4NPHnUePfcPgDTol7ffxixcDzo+fvxD3wTAQAAwGdkkbaWiuLo5/Vfm2XfQnV96vkv7EeEQAr4LioAAABfMKwFPG6cbfcu08be32tvy76Jarj63H9hOyIMVAIj4wsAAICvSBHL+WJ27NlAJqFe72xfPevnxz8wWgIAAIAbGu4DbDbeb5d9C/Nn8Ln/iZ4/MC4qAAAAt9ZvPW6cNT0byCgMnvV7FRH1sm8B5psAAADgGwz3ATYbZ08vLy42PBvIben5A5OmAgAA8H3uLxbFiX0AbqNe7zzV8wcmTQAAADACWYrmUlEcPVp/5wcdX/TpWb/0IvT8gQlTAQAAGJEUsZxl6fnjxtlT+wBcN+j5P4+Ih2XfAlSXAAAAYMSG+wCPHpz9qffhYsc+QHVd9fwXn0akrfAXf6BkKgAAAGMyfDbwUePdc/sA1VOv7zcjFo496wdMCwEAAMCYZZG2lori6Of1X5tl38L4fer5L7yKCMEPMDVUAAAAJmBYC3jcONtO/f6T3V/udcu+idEaPOv3PCIEPcBUEgAAAExQiliOPD969OCsbR9gPuj5A7NCBQAAoATDfYDNxvvtZv3Ej8YZVa/v1/X8gVkhAAAAKFW/1fuhOLYPMFvq9f37g57/Uej5AzNCBQAAoGTX9wE+XlysqQVMr0HPfzsitsq+BeC2fAEAADAlUsTyYlGcPHpw9sqzgdOnXu88jVg4CT/+gRklAAAAmDKDfYDjzcb77bJvYfisX+c4Ir0IPX9ghlU2AOin9CRF+LwOAJhWP0b0W48bZyf2AcpRr+8vf+r5p/tl3wPwvSobAOx1au1enq+lSH8p+xYAgC8Z7gNsrr/bVwuYjHp9/8d6vbN9te4f9bLvARiVygYAERFvDu6cvj6sNS/zfCWyOCj7HgCAL8rSQ/sA41ev7zevev6e9QPmT6UDgKE3B3dOd/92d0MtAACYdlmK5lJRHKkFjNZVz//wKGLhVfjhD8wpAcA1e51a+/Xh3ZWI/k5EnJd9DwDA51x7NvDkf9b/92HZ98yyQc//1VXP3+f+wHwTAHzG7uG91mWer9oHAACmWYpYXsgW9tUCbu9fev6+pgAqQQDwBdf3AdQCAIBpNng28GSz8X5bEPB19fp+/eqHv54/UC0CgK+4CgLurtgHAACmX79lH+DLrvX8jyJCUAJUjgDghvY6tfZSfrE62AcAAJhK1/cBfA1w5epz/8Pnev5A1QkAbqF9sHI+2AdYsQ8AAEyzFLHs2cCIer3z9OpZv9gq+xaAsgkAvsFwHyD6/TW1AABgml3fByj7lkkafO5/EpFehJ4/QEQIAL7L7i/3uvYBAIDZ0G89bpydzPs+wOBZPz1/gM8QAIzAXqfW7uX5WkT/Zdm3AAB8yXAfYHP93dG81QKuPet3Enr+AJ8lABiRNwd3TncP723ZBwAApl6W6vO0D/Cp559aZd8CMM0EACM23AdQCwAApl2WorlUFEeP1t/N5EDep2f99PwBbkIAMCZ7nVr79eHdlZTSM0EAADCtUsRylqXns7QPMOj573vWD+B2BABj9rpTe9HL8zW1AABgmg33Aaa5FnCt538cEQ/Lvgdg1ggAJmBYC7jM85XIUrfsewAAvmT4bOCjxrvn0xQE1Ov7D69++KdW+Nwf4JsIACbozcGd092/1dbsAwAA0y6LtLVUFEdl1wI+9fwX9sOzfgDfRQBQguE+QER/JyLOy74HAOBzhrWAckMAPX+AUREAlGj38F7rMs9X7QMAAAAwbgKAkl3fB1ALAAAAYFwEAFPiKgi4u2IfAAAAgHEQAEyZvU6tvZRfrA72AQAAAGAkBABTqH2wcj7YB1ixDwAAAMAoCACm2HAfIFJvQy0AAACA7yEAmAG7nZ8O7AMAAADwPQQAM2SvU2v38nxNLQAAAIDbEgDMmOvPBkYWB2XfAwAAwGwQAMyoNwd3Tnf/dndDLQAAAICbEADMuL1Orf368O5KRH9HEAAAAMCXCADmxO7hvZZ9AAAAAL5EADBHfrcPEPG27HsAAACYHgKAOfTm4M7p7uHdVfsAAAAADAkA5tj1fYCybwEAAKBcAoAK2D2817rM8xX7AAAAANUlAKiI4T5AP0+ragH8YfOfAAAgAElEQVQAAADVIwComL2D2tvXh3dX7AMAAABUiwCgovY6tXYvz9fsAwAAAFSDAKDCrl4LsA8AAABQBQIAftsHiNTbUAsAAACYTwIAfrPb+enAPgAAAMB8EgDwb4b7AGoBAAAA80MAwGcNawGXeb4SWRyUfQ8AAADfRwDAH3pzcOd09293N9QCAAAAZpsAgBvZ69Tarw/vrgyeDTwv+x4AAABuRwDArQyeDVy1DwAAADBbBADc2vV9ALUAAACA2SAA4JtdBQGeDQQAAJgFAgC+216n1l7KL1YH+wAAAABMIQEAI9E+WDkf7AOs2AcAAACYPgIARmq4DxD9/ppaAAAAwPQQADAWu7/c69oHAAAAmB4CAMZqr1Nr9/J8LaL/suxbAAAAqkwAwNi9Obhzunt4b8s+AAAAQHkEAEzMcB9ALQAAAGDyBABM3F6n1n59eHclpfRMEAAAADAZAgBK87pTe9HL8zW1AAAAgPETAFCqYS3gMs9XIkvdsu8BAACYVwIApsKbgzunu3+rrdkHAAAAGA8BAFNluA8Q0d+JiPOy7wEAAJgXAgCm0u7hvdZlnq/aBwAAABgNAQBT6/o+gFoAAADA9xEAMPWugoC7K/YBAAAAvp0AgJmx16m1l/KL1cE+AAAAALcgAGCmtA9Wzgf7ACv2AQAAAG5OAMBMGu4DROptqAUAAAB8nQCAmbbb+enAPgAAAMDXCQCYC3udWruX52tqAQAAAJ8nAGBu/P7ZQEEAAADAdQIA5s4wCFALAAAA+EQAwNza69Tarw/vrkT0dwQBAABA1QkAmHu7h/da9gEAAICqEwBQCdf3ASLibdn3AAAATJoAgEp5c3DndPfw7qp9AAAAoGoEAFTS9X2Asm8BAACYBAEAlbZ7eK/l2UAAAKAKBABU3m/PBuZpVS0AAACYVwIAGNg7qL19fXh3xT4AAAAwjwQA8C/2OrV2L8/X7AMAAADzRAAAn3H1WoB9AAAAYH4IAOAPDPcBIvU21AIAAIBZJgCAG9jt/HRgHwAAAJhlAgC4heE+gFoAAAAwawQAcEvDWsBlnq9EFgdl3wMAAHATAgD4Rm8O7pzu/u3uhloAAAAwCwQA8J32OrX268O7K4NnA8/LvgcAAOBzBAAwIoNnA1ftAwAAANNIAAAjdH0fQC0AAACYJgIAGIOrIMCzgQAAwPQQAMAY/cs+AAAAQGkEADABg32AFfsAAABAWQQAMCHDfYDo99fUAgAAgEkTAMCE7f5yr2sfAAAAmDQBAJRkr1Nr9/J8LaL/suxbAACA+ScAgBK9Obhzunt4b8s+AAAAMG4CAJgCw30AtQAAAGBcBAAwRYbPBqaUngkCAACAURIAwBR63am96OX5mloAAAAwKgIAmFLDWsBlnq9Elrpl3wMAAMw2AQBMuTcHd053/1Zbsw8AAAB8DwEAzIjhPkBEfycizsu+BwAAmC0CAJgxu4f3Wpd5vmofAAAAuA0BAMyg6/sAagEAAMBNCABghl0FAXdX7AMAAABfIwCAObDXqbWX8ovVwT4AAADAvxEAwJxoH6ycD/YBVuwDAAAA/0oAAHNmuA8Q/f6aWgAAADAkAIA5tfvLva59AAAAYEgAAHNur1Nr9/J8TS0AAACqTQAAFfD7ZwMFAQAAUEUCAKiQYRCgFgAAANUjAIAK2uvU2q8P766klJ4JAgAAoBoEAFBhrzu1F/YBAACgGgQAUHHX9wEi4m3Z9wAAAOMhAAAi4ioI2D28u2ofAAAA5pMAAPid4T5ARH+n7FsAAIDREQAAn7V7eK/l2UAAAJgfAgDgi357NjBPq2oBAAAw2wQAwFftHdTevj68u2IfAAAAZpcAALixvU6t3cvzNfsAAAAwewQAwK1cvRZgHwAAAGaNAAD4JsN9gEi9DbUAAACYfgIA4Lvsdn46sA8AAADTTwAAjMRwH0AtAAAAppMAABiZYS3gMs9XIouDsu8BAAA+EQAAI/fm4M7p7t/ubqgFAADA9BAAAGOz16m1Xx/eXYno7wgCAACgXAIAYOx2D++17AMAAEC5BADARFzfB/A1AAAATJ4AAJioqyDAs4EAADBpAgCgFNf3Acq+BQAAqkAAAJRq9/Be66oWYB8AAADGSQAAlG64D9DP06paAAAAjIcAAJgaewe1t/YBAABgPAQAwNTZ69TavTxfi+i/LPsWAACYFwIAYCq9Obhzunt4b8s+AAAAjIYAAJhqv+0DqAUAAMB3EQAAM2H4bGBK6ZkgAAAAbk8AAMyU153ai16er6kFAADA7QgAgJkzrAVc5vlKZKlb9j0AADALBADAzHpzcOd092+1NfsAAADwdQIAYOYN9wEi+jsRcV72PQAAMI0EAMDc2D2817rM81X7AAAA8O8EAMBcub4PoBYAAACfCACAuXQVBNxdsQ8AAABXBADAXNvr1NpL+cXqYB8AAAAqSwAAzL32wcr5YB9gxT4AAABVJQAAKmO4DxD9/ppaAAAAVSMAACpn95d7XfsAAABUjQAAqKy9Tq3dy/O1iP7Lsm8BAIBxEwAAlfbm4M7p7uG9LfsAAADMOwEAQHzaB1ALAABgXgkAAK7Z69Tarw/vrqSUngkCAACYJwIAgM943am96OX5mloAAADzQgAA8AXDWsBlnq9ExNuy7wEAgO8hAAD4iquhwLur9gEAAJhlAgCAGxruA0T0d8q+BQAAbksAAHBLu4f3Wp4NBABg1ggAAL7Bb88G5mlVLQAAgFkgAAD4DnsHtbevD++u2AcAAGDaCQAARmCvU2v38nytF/2XZd8CAACfs1j2AQDz4s3BndPwFQAAAFPKFwAAAABQAQIAAAAAqAABAAAAAFSAAAAAAAAqQAAAAAAAFSAAAAAAgAoQAAAAAEAFCAAAAACgAgQAAAAAUAECAAAAAKgAAQAAAABUgAAAAAAAKkAAAAAAABUgAAAAAIAKEAAAAABABQgAAAAAoAIEAAAAAFABAgCAOdFP2WlEnJd9BwDADDgt+4AyCAAA5sRep9a+zPPVFOkvZd8CADClziPiWbfbWCv7kDIIAADmyJuDO6evD2vNyzxfSRVNtgEAPi+9jOitdLuNF2VfUpbFsg8AYPTeHNw5jYiVn9d/bWZZtp1FLJd9EwBASboRvWfd7sbbsg8pmy8AAObYXqfWXsovViP6O2XfAgAwYacRvbVut7Hmx/8VAQDAnGsfrJzvHt5rXdUC7AMAAHPvPCLtRPRWu92NbtnHTBMVAICKGNQCmpv/9Y92yvNXagEAwPxJLyP6rW53w8tInyEAAKiY3V/udcM+AAAwX7oRvR1/8f9jKgAAFbXXqbV7eb4W0X9Z9i0AAN/oNKK3Mej5+/H/FQIAgAp7c3DndPfw3pZ9AABgxlzv+R+UfcysUAEA4Ld9gJ/Xf+2qBQAAU+5g8KzfadmHzBoBAAC/2evU2hHRfrT+61Zk2VNBAAAwRfT8v5MKAAD/5nWn9qKX52tqAQDAFDiPiGd6/t9PAADAZ705uHP6+rDWvMzzlciS/9kCAJM27PmvdLuNF2UfMw9UAAD4Q4N9gDXPBgIAE9SN6D3R8x8tAQAANzLcB9hs/KMVkT+NiB/LvgkAmDfpbUT/mU/9x0MFAIBb2T2817rM81X7AADACA16/g9W/fgfHwEAALd2fR8gRfg0DwD4Dumlnv9kqAAA8M0G+wAr9gEAgG+g5z9hvgAA4LvtdWrtpfxiNaK/U/YtAMDUO43orQ2e9fPjf4J8AQDASLQPVs4jovXfD9+3F/q9VhbZn8u+CQCYKucR6WW3+6BV9iFV5QsAAEZquA8QqbdhHwAAuDLs+fvxXyZfAAAwFrudnw4i4sA+AABUWjeit2PZfzr4AgCAsdrr1Nq9PF/zbCAAVMppRG9j0PP3439KCAAAGLvfPxsoCACAOXYekXYieqvd7sZB2cfweyoAAEzM4NnA5s/rv3bVAgBg7rQHn/vbAJpSAgAAJm6vU2tHRHuz8Y9WivzPggAAmGl6/jNCBQCA0uwe3mvZBwCAmXUeEU/0/GeHAACAUl3fB4iIt2XfAwB81bDnv9LtNtplH8PNqQAAMBUG+wCrng0EgKnWjeg90fOfTb4AAGCq7HVq7deHd1ci+jtl3wIADKW3Eb21wef+fvzPKAEAAFNp9/Bey7OBAFC684h41u0+WNXzn30CAACm1nAfoJ+n1RThrw0AMFHp5aDn/6LsSxgNGwAATL29g9rbiFixDwAAE6HnP6d8AQDAzNjr1Nq9PF+zDwAAY3Gq5z/ffAEAwEwZvBbQ+u+H79sL/V4ri+zPZd8EADPuPCK97HYftMo+hPHyBQDAnPh5/dfmZuP9dtl3TMpwHyBSb8M+AAB8q2HP34//KhAAAMyJPEvLEf3W48bZyc/rvzbLvmdSdjs/Hbw+vLvST+mJIAAAbqx79bn/g61ud+O87GOYDAEAwJxJEct5lr3aXH+3/9//cVKZsbzhPoBnAwHgD51G9DYGPX/P+lWMAABgXmXp4WJRnDx6cPaqKkHAsBZwmecrkcVB2fcAwBQ5j0g7Eb3VbnfD/yMrSgAAMOeyFM2lojiqUi3gzcGd092/3d1QCwCAiIhoX/3wf9DyuX+1CQAAKmBYC3jcODv5n/X/fVj2PZOy16m1Xx/eXRk8G+gfPABUzaDn33jiWT8iBAAAlZIilheyhf0q1QIiInYP77Uu83zVPgAAFXEeEU/0/PlXAgCACspSNBeL4mSz8X67KkHA9X0AtQAA5tSw57/S7TbaZR/D9BEAAFRav1XFfQDPBgIwh7p6/nyNAACg4q7vA/z8n7/eL/ueSfmXfQAAmFHp7aDnv6bnz9cIAACIiEEQsJgdV3QfYMU+AAAz5jwinnW7D1b1/LkpAQAAv3N9H6DsWyZluA/Qz9OqWgAA0y+9HPT8X5R9CbNFAADAF/RbjxtnJ1XaB9g7qL21DwDAFOte/fB/sKXnz7cQAADwRcN9gM3G2XGVagF7nVq7l+drEf2XZd8CABFxqufPKAgAALiJ+4tFcVKlfYA3B3dOdw/vbdkHAKBE5xFpp9ttrOj5MwoCAABuLEvRXCqKo0fr77bKvmVSftsHUAsAYKKGPf8HrbIvYX4IAAC4lRSxnGXpeeX2AQbPBqaUngkCABij7tXn/nr+jJ4AAIBvMtwHqFItICLidaf2opfna2oBAIzYaURvY9Dz97k/YyEAAOC7DJ8NfNR497wqQcCwFnCZ5yuRJf9IA+B7nEeknYjeare7cVD2Mcw3AQAAI5FF2loqiqMq1QLeHNw53f1bbc0+AADfqH31w/9By+f+TIIAAICRGdYCHjfOTjb/6x/1su+ZlOE+QER/JyL8Aw6Arxn0/BtPPOvHJAkAABi5FLEceX5UtX2A3cN7rcs8X7UPAMAXnEfEEz1/yiIAAGBshvsAm4332836yY9l3zMJ1/cB1AIAGBj2/Fe63Ua77GOoLgEAABPQb/V+KI6rtg/w+vDuin0AgMrr6vkzLQQAAEzE9X2AKtUC9jq19lJ+sTrYBwCgMtLbQc9/Tc+faSEAAGCiUsTyYlGcVGkfoH2wcj7YB1ixDwAw984j4lm3+2BVz59pIwAAoBSDfYDjzcb77bJvmZThPkD0+2tqAQDzKL0c9PxflH0JfI4AAIAy/RjRbz1unJ1UaR9g95d7XfsAAHOle/XD/8GWnj/TTAAAQOmG+wCb6++OqlILiLjaB+jl+ZpaAMDMOtXzZ5YIAACYHlmqV20f4PfPBgoCAGbEeUTa6XYbK3r+zBIBAABTJ0vRXCqKo0fr77bKvmVShkGAWgDAtBv2/B+0yr4EbksAAMBUShHLWZaeV20fYK9Ta78+vLuSUnomCACYKt2rz/31/JldAgAAptpwH6BKtYCIiNed2gv7AABT4TSitzHo+fvcn5kmAABgJgyeDTx51Hj3vCpBwPV9gIh4W/Y9ABVzHpF2Inqr3e7GQdnHwCgIAACYKVmkraWiOKpSLeDNwZ3T3cO7q/YBACamffXD/0HL5/7MEwEAADNnWAt43Dg7+fk/f71f9j2TMtwHiOjvlH0LwJwa9PwbTzzrxzwSAAAws1LEcr6YHVdtH2D38F7Ls4EAI3UeEU/0/Jl3AgAAZt5wH2Cz8X677Fsm5bdnA/O0qhYA8M2GPf+VbrfRLvsYGDcBAABzpN+q3LOBB7W3rw/vrtgHALi1rp4/VSMAAGCuDPcBNhtnx1WqBex1au1enq/ZBwD4mvR20PNf0/OnagQAAMyr+4tFcVKlfYCr1wLsAwB8wXlEPOt2H6zq+VNVAgAA5lqWorlUFEdV3AeI1NtQCwCIiEgvBz3/F2VfAmUSAAAw91LEchX3AXY7Px3YBwAqrnv1w//Blp4/CAAAqJDf9gHW3+1XpRYQ8WkfQC0AqJBTPX/4dwIAAKonSw+ruA/w+rDWvMzzlcjioOx7AMbkPCLtdLuNFT1/+HcCAAAqa7gPUKVawJuDO6e7f7u7oRYAzJ9hz/9Bq+xLYFoJAACotGEt4HHj7OR/1v/3Ydn3TMpep9Z+fXh3JaK/IwgAZlz36nN/PX/4GgEAAMRVELCQLexXqRYQEbF7eK9lHwCYUacRvY1Bz9/n/nADAgAAuCZL0VwsipPNxvvtqgQB1/cBfA0AzIDziLQT0VvtdjdsmsAtCAAA4LP6rSruA3g2EJhy7asf/g9aPveH2xMAAMAXXN8H+Pk/f71f9j2Tcn0foOxbAAYGPf/GE8/6wbcTAADAV6SI5XwxO67iPsBVLcA+AFCa84h4oucPoyEAAIAbur4PUPYtkzLcB+jnaVUtAJigYc9/pdtttMs+BuaFAAAAbq3fetw4O6nSPsDeQe2tfQBgQrp6/jAeAgAA+AbDfYDNxtlxlWoBe51au5fnaxH9l2XfAsyb9HbQ81/T84fxEAAAwPe5v1gUJ1XaB3hzcOd09/Deln0AYETOI+JZt/tgVc8fxksAAAAjkKVoLhXF0aP1d1tl3zIpv+0DqAUA3yy9HPT8X5R9CVSBAAAARiRFLGdZel65fYDBs4EppWeCAOCGulc//B9s6fnD5AgAAGDEhvsAVaoFRES87tRe9PJ8TS0A+AOnev5QHgEAAIzJ8NnAR413z6sSBAxrAZd5vhJZ0uUFhs4j0k6321jR84fyCAAAYMyySFtLRXFUpVrAm4M7p7v/v707SG7qTPc4/OkAGnZl6pKUsnYQ7QBNuxolzLo7pgp2YFaAvILADnSrZJVnEVIGd4Z2gHdgV6eBqac3ZencgXSISUJiwNY5Ou/zrOCb+me9//Oy3bcPAPx65//tsOyXQHQCAABsQXEW8Gjw5uzgHz/fL/s921LsA6S0OkrrpW8gjsX65/7u/KEqBAAA2KI8pf2UZa+i7QOMZ53hZZb17ANACOcpLR9u7vz93B8qRAAAgBIU+wAHg3fPHt8/+6rs92zD1X0AZwFQSxcp5UcpLXuLxcNp2Y8Bfk8AAIBSrYbLvzVfR9sHOJ61uvYBoFZG6z/8vx36uT9UlwAAACW7ug8Q6SxgMm+P7mW/9Db7AMBu2tz5D574rB9UnwAAABWRp7R/t9k8i7QPMJp2Lzb7AF37ALBTLlJKT9z5w24RAACgYjb7AK8PBu+elf2WbSn2AdJq1XcWAJVW3Pl3F4vBqOzHAJ9GAACAavoqpdXw0eDNWaR9gPFPnYV9AKishTt/2G0CAABUWLEPcPDg7asoZwEprfcBllnWT2n1ouy3AO/v/Pvu/GG3CQAAsAsa+f1o+wAn073z8axzaB8ASnORUnrqzh/qQwAAgB3SyNPje83mq+8fvD0s+y3bUuwDOAuAbXp/5/+87JcAN0cAAIAdk6e032jkP0TbB5jM26PjWaub5/lTIQBuzWL9h787f6gjAQAAdlSxDxDpLCCllI7n7efLLOs7C4Abde7OH+pPAACAHbf5bODZ94O3P0QJAcVZwGWWdVNKp2W/B3bYRUr50WIx6Lrzh/oTAACgJhopP7zXbL6KdBawHgps9ewDwOfIXxQ/9y/7JcB2CAAAUCPFWcCjwZuzf//9v9+U/Z5tKfYBUlodlf0W2AGbz/p9e+jOH2IRAACghvKU9rO7jdfR9gHGs87QZwPho67e+fu5PwQkAABAjRX7AAeDd8/Kfsu2vP9sYJb3nAVASmlz55/SsucPf4hNAACAEFbDcJ8NnLZPj2etrn0Aghv5rB9QEAAAIIir+wCRzgIm8/ZomWV9+wAEs7nzHzzxhz9QEAAAIJg8pf27zeZZpH2A9dcC7AMQwkVK6Yk7f+CPCAAAEFQjT4/vNZuvIu4DpHz50FkANVPc+XcXi8Go7McA1SQAAEBgeUr7EfcBxvOvp/YBqJHFeuDPnT/w5wQAAOD9PsDBg7c/RjkLSOnXfQBnAeyoxZXP+glZwF8SAACAXzXy7yLuAxzP2o8vs6ybGmla9nvgGi5SSk/d+QOfSgAAAH6n2AeIdBZwMt07H79sPXQWQLW9v/N/XvZLgN0jAAAAf+jqZwP/9eA/35X9nm2ZzNuj41mrm9LqSAigQhbrP/zd+QOfTwAAAP5UntL+ncadHyOdBaSU0njWGdoHoALO3fkDN0UAAACupZGnx3ebzbODwbtnUULAB/sAKZ2W/R5CuUgpP1osBl13/sBNEQAAgE+0GobcB5i1evYB2I78RfFz/7JfAtSLAAAAfLKr+wD//vt/vyn7PdtydR+g7LdQS5vP+n176M4fuA0CAADw2fKU9rO7jdcR9wEus6xrH4AbcvXO38/9gVsjAAAAX+zqPkDZb9mWYh9gleU9ZwF8povNZ/16/vAHtkEAAABu0Gr4aPDmLNI+wGTaPj2etbr2AfhEI5/1A7ZNAAAAblSxD3AwePM60lnAZN4eLbOsn9LqRdlvodI2d/6DJ/7wB7ZNAAAAbss3d5vNs0j7AOuvBXQO7QPwBy5SSk/c+QNlEgAAgFvVyNPje83mq+8fvD0s+y3b8n4fwFkAv975dxeLwajsxwCxCQAAwK3LU9pvNPIfwu0DbD4bmOf5UyEgpOl64M+dP1ANAgAAsDXFPkCks4CUUjqet58vs6zvLCCM4s7/4WLxUPgBKkMAAAC2rvhsYKQQUJwFXGZZNzVyN+D1dJFSeurOH6gqAQAAKE2xDxDpLOBkunc+ftnu2weom/d3/s/LfgnAxwgAAECpirOAR4M3Z/968J/vyn7PthT7ACmtjtL6P8fspsX6D393/kD1CQAAQCXkKe3fadz5MdJZQEopjWed4WWW9ewD7JzzzZ1/350/sCsEAACgUop9gIPBu2eP7599VfZ7tuHqPoCzgMor7vy77vyBXSMAAAAVtRou/9Z8HW0f4HjW6toHqKr8hTt/YJcJAABAZV3dB4h0FjCZt0f3sl96m30AyrdIadlbLL49dOcP7DIBAACovDyl/WifDRxNuxebfYCufYDSXL3zPy37MQBfSgAAAHbGZh/g9cHg3bOy37ItxT5AWq36zgK25mLzWb+eO3+gTgQAAGDXfJXSavho8OYs0j7A+KfOwj7AVox81g+oKwEAANhJxT7AwYO3r6KcBaS03gdYZlk/pdWLst9SM4vNz/2f+MMfqCsBAADYbY38frR9gJPp3vl41jm0D3AjzlNKTzZ3/n7uD9SaAAAA1EIjT4/vNZuvvn/w9rDst2xLsQ/gLOCzXLnzH4zKfgzANggAAEBt5CntNxr5D9H2ASbz9uh41urmef5UCLiW6eazfu78gVAEAACgdop9gEhnASmldDxvP19mWd9ZwEcVd/4PF4uHQgkQjgAAANTW5rOBZ98P3v4QJQQUZwGXWdZNKfl2/dpFSumpO38gOgEAAKi9RsoP7zWbryKdBayHAls9+wD50fqzfoPnZb8EoGwCAAAQQnEW8Gjw5uzgHz/fL/s921LsA6S0Oir7LVu2WP/h784foCAAAACh5Cntpyx7FW0fYDzrDIN8NvB8c+ffd+cP8CEBAAAIqdgHOBi8e1b2W7bl/WcDs7xXw7OA4s6/684f4I8JAABAcKthuM8GTtunx7NWtz77APkLd/4Af00AAADCu7oPEOksYDJvj5ZZ1t/hfYBFSsveYvHtoTt/gL8mAAAAbOQp7d9tNs8i7QOsvxawc/sAV+/8feoQ4JoEAACA39jsA7yOuA+Q8uXDCp8FXGw+69dz5w/w6QQAAIA/9lXEfYDx/OtpRfcBRj7rB/BlBAAAgD9R7AMcPHj7Y5SzgJR+3QeowFnAYvNz/yf+8Af4Mo2yHwDAzTgY/DxMKQvzc2UoS95Io+X//XJ08r/dKv13HAD+kl8AAAB8gkaeHt9rNl9FOgsAoB4EAACAT3T1s4H/evCf78p+DwBchwAAAPCZ8pT27zTu/Bjps4EA7C4BAADgC20+G3h2MHj3TAgAoKoEAACAG7Ma2gcAoKoEAACAG3R1H+Dff//vN2W/BwAKAgAAwC3IU9rP7jZe2wcAoCoEAACAW3R1H6DstwAQmwAAALAVq+GjwZsz+wAAlEUAAADYkmIf4GDw5rWzAAC2TQAAANi+b+42m2f2AQDYJgEAAKAkjTw9vtdsvrIPAMA2CAAAACXKU9q3DwDANggAAAAVUOwDOAsA4LYIAAAAFVJ8NlAIAOCmCQAAABVU7AM4CwDgpggAAAAVVZwFPBq8OfvXg/98V/Z7ANhtAgAAQMXlKe3fadz50VkAAF9CAAAA2BHFPsDB4N2zx/fPvir7PQDsFgEAAGDnrIbLvzVf2wcA4FMIAAAAO+jqPoCzAACuQwAAANhheUr7PhsIwHUIAAAANbDZB3h9MHj3rOy3AFBNAgAAQH18ldJq+Gjw5sw+AAC/JQAAANRMsQ9w8ODtK2cBABQEAACAumrk9+0DAFAQAAAAaq6Rp8f3ms1X3z94e1j2WwAojwAAABBAntJ+o5H/YB8AIC4BAAAgkGIfwFkAQDwCAABAQJvPBp59P3j7gxAAEIMAAAAQWCPlh/eazeQKRxYAAA7iSURBVFfOAgDqTwAAAAiuOAt4NHhzdvCPn++X/R4AbocAAABASmkdAlKWvbIPAFBPAgAAAB8o9gEOBu+ePb5/9lXZ7wHgZggAAAB8xGq4/Fvz9b///t9vyn4JAF9OAAAA4KPylPbTnSQAANSAAAAAAAABCAAAAAAQgAAAAAAAAQgAAAAAEIAAAAAAAAEIAAAAABCAAAAAAAABCAAAAAAQgAAAAAAAAQgAAAAAEIAAAAAAAAEIAAAAABCAAAAAAAABCAAAAAAQgAAAAAAAAQgAAAAAEIAAAAAAAAEIAAAAABCAAAAAAAABCAAAAAAQgAAAAAAAAQgAAAAAEIAAAAAAAAEIAAAAABCAAAAAAAABCAAAAAAQgAAAAAAAAQgAAAAAEIAAAAAAAAEIAAAAABCAAAAAAAABCAAAAAAQgAAAAAAAAQgAAAAAEIAAAAAAAAEIAAAAABCAAAAAAAABCAAAAAAQgAAAAAAAAQgAAAAAEIAAAAAAAAEIAAAAABCAAAAAAAABCAAAAAAQgAAAAAAAAQgAAAAAEIAAAAAAAAEIAAAAABCAAAAAAAABCAAAAAAQgAAAAAAAAQgAAAAAEIAAAAAAAAEIAAAAABCAAAAAAAABCAAAAAAQgAAAAAAAAQgAAAAAEIAAAAAAAAEIAAAAABCAAAAAAAABCAAAAAAQgAAAAAAAAQgAAAAAEIAAAAAAAAEIAAAAABCAAAAAAAABCAAAAAAQgAAAAAAAAQgAAAAAEIAAAAAAAAEIAAAAABCAAAAAAAABCAAAAAAQgAAAAAAAAQgAAAAAEIAAAAAAAAEIAAAAABCAAAAAAAABCAAAAAAQgAAAAAAAAQgAAAAAEIAAAAAAAAEIAAAAABCAAAAAAAABCAAAAAAQgAAAAAAAAQgAAAAAEIAAAAAAAAEIAAAAABCAAAAAAAABCAAAAAAQgAAAAAAAAQgAAAAAEIAAAAAAAAEIAAAAABCAAAAAAAABCAAAAAAQgAAAAAAAAQgAAAAAEIAAAAAAAAEIAAAAABCAAAAAAAABCAAAAAAQgAAAAAAAAQgAAAAAEIAAAAAAAAEIAAAAABCAAAAAAAABCAAAAAAQgAAAAAAAAQgAAAAAEIAAAAAAAAEIAAAAABCAAAAAAAABCAAAAAAQgAAAAAAAAQgAAAAAEIAAAAAAAAEIAAAAABCAAAAAAAABCAAAAAAQgAAAAAAAAQgAAAAAEIAAAAAAAAEIAAAAABCAAAAAAAABCAAAAAAQgAAAAAAAAQgAAAAAEIAAAAAAAAEIAAAAABCAAAAAAAABCAAAAAAQgAAAAAAAAQgAAAAAEIAAAAAAAAEIAAAAABCAAAAAAAABCAAAAAAQgAAAAAAAAQgAAAAAEIAAAAAAAAEIAAAAABCAAAAAAAABCAAAAAAQgAAAAAAAAQgAAAAAEIAAAAAAAAEIAAAAABCAAAAAAAABCAAAAAAQgAAAAAAAAQgAAAAAEIAAAAAAAAEIAAAAABCAAAAAAAABCAAAAAAQgAAAAAAAAQgAAAAAEIAAAFATl9ndUZ7y/yn7HQAAVJMAAFATJ9O98+NZ+3Farfp5SudlvwcAgGoRAABqZvxTZ3E8a3VXef5ECAAAoCAAANTUZN4eLbOsn9LqRdlvAQCgfAIAQI2dTPfOx7PO4WWWde0DAADEJgAABFDsAzgLAACISwAACGQyb4+OZ61unudPhQAAgFgEAICAjuft58ss6zsLAACIQwAACKo4C7jMsm5K6bTs9wAAcLsEAIDg1kOBrZ59AACAehMAAEgp/boPkNLqqOy3AABw8wQAAD4wnnWGPhsIAFA/AgAAv/P+s4FZ3nMWAABQDwIAAB81mbZPj2etrn0AAIDdJwAA8Jcm8/ZomWV9+wAAALtLAADgWtZfC7APAACwqwQAAD5JsQ+Q8uVDZwEAALtDAADgs4znX0/tAwAA7A4BAIAvUuwDOAsAAKg2AQCAL1acBVxmWTc10rTs9wAA8HsCAAA35mS6dz5+2XroLAAAoHoEAABu3GTeHh3PWt2UVkdCAABANQgAANya8awztA8AAFANAgAAt+qDfYCUTst+DwBAVAIAAFtxMt07H89aPfsAAADlEAAA2Kqr+wBlvwUAIBIBAIBSjGed4WWWde0DAABshwAAQGmKfYBVlvecBQAA3C4BAIDSTabt0+NZq2sfAADg9ggAAFTGZN4eLbOsn9LqRdlvAQCoGwEAgEpZfy2gc2gfAADgZgkAAFTS+30AZwEAADdCAACg0orPBuZ5/lQIAAD4fAIAADvheN5+vsyyvrMAAIDPIwAAsDOKs4DLLOumRr4o+z0AALtEAABg55xM987HL9t9+wAAANcnAACws4p9gJRWRymli7LfAwBQZQIAADtvPOsML7OsZx8AAODjBAAAauHqPoCzAACA3xMAAKiVdQhode0DAAB8SAAAoJYm8/boXvZLb7MPAAAQngAAQG2Npt2LzT5A1z4AABCdAABA7RX7AGm16jsLAACiEgAACGP8U2dhHwAAiEoAACCcybw9WmZZP6XVi7LfAgCwLQIAACGdTPfOx7POoX0AACAKAQCA0Ip9AGcBAEDdCQAAkNZnAcezVjfP86dCAABQRwIAAFxxPG8/X2ZZ31kAAFA3AgAA/EZxFnCZZd2U0mnZ7wEAuAkCAAB8xHoosNWzDwAA1IEAAAB/odgHSGl1VPZbAAA+lwAAANc0nnWGPhsIAOwqAQAAPsH7zwZmec9ZAACwSwQAAPgMk2n79HjW6toHAAB2hQAAAF9gMm+PllnWtw8AAFSdAAAAX2j9tQD7AABAtQkAAHBDin2AlC8fOgsAAKpGAACAGzaefz21DwAAVI0AAAC3pNgHcBYAAFSBAAAAt6g4C7jMsm5qpGnZ7wEA4hIAAGALTqZ75+OXrYfOAgCAsggAALBFk3l7dDxrdVNaHQkBAMA2CQAAUILxrDO0DwAAbJMAAAAl+WAfIKXTst8DANSbAAAAJTuZ7p2PZ62efQAA4DYJAABQEVf3Acp+CwBQPwIAAFTMeNYZXmZZ1z4AAHCTBAAAqKBiH2CV5T1nAQDATRAAAKDCJtP26fGs1bUPAAB8KQEAAHbAZN4eLbOsn9LqRdlvAQB2kwAAADti/bWAzqF9AADgcwgAALBj3u8DOAsAAD6BAAAAO6r4bGCe50+FAADgrwgAALDjjuft58ss6zsLAAD+jAAAADVQnAVcZlk3NfJF2e8BAKpHAACAGjmZ7p2PX7b79gEAgN8SAACghop9gJRWRymli7LfAwCUTwAAgBobzzrDyyzr2QcAAAQAAKi5q/sAzgIAIC4BAACCWIeAVtc+AADEJAAAQDCTeXt0L/ult9kHAACCEAAAIKDRtHux2Qfo2gcAgBgEAAAIrNgHSKtV31kAANSbAAAApPFPnYV9AACoNwEAAHhvMm+PllnWT2n1ouy3AAA3SwAAAD5wMt07H886h/YBAKBeBAAA4A8V+wDOAgCgHgQAAOBPTebt0fGs1c3z/KkQAAC7SwAAAK7leN5+vsyyvrMAANhNAgAAcG3FWcBllnVTSqdlvwcAuD4BAAD4ZOuhwFbPPgAA7A4BAAD4bMU+QEqro7LfAgD8OQEAAPhi41ln6LOBAFBtAgAAcCOu7gM4CwCA6hEAAIAbtQ4Bra59AACoFgEAALgVk3l7tMyyvn0AAKgGAQAAuDXrrwXYBwCAKhAAAIBbV+wDpHz50FkAAJRDAAAAtmY8/3pqHwAAyiEAAABbV+wDOAsAgO0RAACAUlz9bGBqpGnZ7wGAuhMAAIBSnUz3zscvWw+dBQDA7RIAAIBKmMzbo+NZq5vS6kgIAICbJwAAAJUynnWG9gEA4OYJAABA5XywD5DSadnvAYA6EAAAgMo6me6dj2etnn0AAPhyAgAAUHlX9wHKfgsA7CoBAADYGeNZZ3iZZV37AADw6QQAAGCnFPsAqyzvOQsAgOsTAACAnTSZtk+PZ62ufQAAuB4BAADYaZN5e7TMsn5KqxdlvwUAqkwAAAB23vprAZ1D+wAA8HECAABQG+/3AZwFAMDvCAAAQO0Unw0UAgDgVwIAAFBbxT6AswAAEAAAgJorzgIus6ybGvmi7PcAQFkEAAAghJPp3vn4ZbvvLACAqAQAACCUYh8gpdVRSumi7PcAwLYIAABASONZZ3iZZT37AABEIQAAAGFd3QdwFgBA3QkAAEB46xDgs4EA1JsAAACwMZm3R/eyX3qbfQAAqBUBAADgitG0e7HZB+jaBwCgTgQAAIA/UOwDpNWq7ywAgDoQAAAA/sT4p87CPgAAdSAAAABcw2TeHi2zrJ/S6kXZbwGAzyEAAABc08l073w86xzaBwBgFwkAAACfqNgHcBYAwC4RAAAAPtNk3h4dz1rdPM+fCgEAVJ0AAADwhY7n7efLLOs7CwCgygQAAIAbUJwFXGZZN6V0WvZ7AOC3BAAAgBu0Hgps9ewDAFA1AgAAwC0o9gFSWh2V/RYASEkAAAC4VeNZZ+izgQBUgQAAAHDLru4DOAsAoCwCAADAlqxDQKtrHwCAMggAAABbNpm3R/eyX3r2AQDYJgEAAKAEo2n3wj4AANskAAAAlKjYB0j58qGzAABukwAAAFAB4/nXU/sAANwmAQAAoEIm8/ZomWV9ZwEA3DQBAACgYq5+NjA10rTs9wBQDwIAAEBFnUz3zscvWw+dBQBwEwQAAICKm8zbo+NZq5vS6kgIAOBzCQAAADtiPOsM7QMA8LkEAACAHfLBPkBKp2W/B4DdIQAAAOygk+ne+XjW6tkHAOC6BAAAgB12dR+g7LcAUG0CAABADYxnneFllnXtAwDwMQIAAEBNFPsAqyzvOQsA4LcEAACAmplM26fHs1bXPgAAVwkAAAA1NZm3R8ss69sHACAlAQAAoNbWXwuwDwCAAAAAEML7fQBnAQBhCQAAAIEUnw0UAgDiEQAAAAIq9gGcBQDEIQAAAARVnAVcZlk3NdK07PcAcLsEAACA4E6me+fjl62HzgIA6k0AAAAgpfTrPsDms4EXZb8HgJslAAAA8IHNZwN79gEAAAAgiH9+927/n//4+X7Z7wDgy/0/+sPzEzsHZ4oAAAAASUVORK5CYII=;" vertex="1" parent="DCxlnjc3I_5zTgTbIcl2-96">
          <mxGeometry x="41" y="10" width="30" height="30" as="geometry" />
        </mxCell>
        <mxCell id="DCxlnjc3I_5zTgTbIcl2-91" value="" style="sketch=0;pointerEvents=1;shadow=0;dashed=0;html=1;strokeColor=none;fillColor=#505050;labelPosition=center;verticalLabelPosition=bottom;verticalAlign=top;outlineConnect=0;align=center;shape=mxgraph.office.devices.laptop;aspect=fixed;" vertex="1" parent="DCxlnjc3I_5zTgTbIcl2-96">
          <mxGeometry width="110" height="58.019999999999996" as="geometry" />
        </mxCell>
        <mxCell id="DCxlnjc3I_5zTgTbIcl2-99" value="" style="group" vertex="1" connectable="0" parent="1">
          <mxGeometry x="308" y="161" width="290" height="290" as="geometry" />
        </mxCell>
        <mxCell id="DCxlnjc3I_5zTgTbIcl2-100" value="Virtual Machine" style="whiteSpace=wrap;html=1;aspect=fixed;verticalAlign=bottom;spacing=-19;" vertex="1" parent="DCxlnjc3I_5zTgTbIcl2-99">
          <mxGeometry x="10" width="280" height="280" as="geometry" />
        </mxCell>
        <mxCell id="DCxlnjc3I_5zTgTbIcl2-101" value="Ubuntu OS" style="rounded=1;whiteSpace=wrap;html=1;" vertex="1" parent="DCxlnjc3I_5zTgTbIcl2-99">
          <mxGeometry x="20" y="240" width="260" height="30" as="geometry" />
        </mxCell>
        <mxCell id="DCxlnjc3I_5zTgTbIcl2-102" value="" style="rounded=1;whiteSpace=wrap;html=1;arcSize=5;" vertex="1" parent="DCxlnjc3I_5zTgTbIcl2-99">
          <mxGeometry x="200" y="20" width="80" height="210" as="geometry" />
        </mxCell>
        <mxCell id="DCxlnjc3I_5zTgTbIcl2-103" value="" style="shape=image;html=1;verticalAlign=top;verticalLabelPosition=bottom;labelBackgroundColor=#ffffff;imageAspect=0;aspect=fixed;image=https://cdn1.iconfinder.com/data/icons/unicons-line-vol-3/24/docker-128.png" vertex="1" parent="DCxlnjc3I_5zTgTbIcl2-99">
          <mxGeometry x="204" y="208" width="20" height="20" as="geometry" />
        </mxCell>
        <mxCell id="DCxlnjc3I_5zTgTbIcl2-104" value="Redis" style="sketch=0;outlineConnect=0;fontColor=#232F3E;gradientColor=none;fillColor=#D45B07;strokeColor=none;dashed=0;verticalLabelPosition=bottom;verticalAlign=top;align=center;html=1;fontSize=10;fontStyle=0;aspect=fixed;pointerEvents=1;shape=mxgraph.aws4.container_1;spacing=-3;" vertex="1" parent="DCxlnjc3I_5zTgTbIcl2-99">
          <mxGeometry x="210" y="152" width="60" height="38.8" as="geometry" />
        </mxCell>
        <mxCell id="DCxlnjc3I_5zTgTbIcl2-105" value="" style="rounded=1;whiteSpace=wrap;html=1;arcSize=5;" vertex="1" parent="DCxlnjc3I_5zTgTbIcl2-99">
          <mxGeometry x="111" y="20" width="80" height="210" as="geometry" />
        </mxCell>
        <mxCell id="DCxlnjc3I_5zTgTbIcl2-106" value="" style="shape=image;verticalLabelPosition=bottom;labelBackgroundColor=default;verticalAlign=top;aspect=fixed;imageAspect=0;image=https://miro.medium.com/max/2800/0*EgzlDjdfnNxDTpTs.png;" vertex="1" parent="DCxlnjc3I_5zTgTbIcl2-99">
          <mxGeometry x="126" y="213.85000000000002" width="50" height="8.3" as="geometry" />
        </mxCell>
        <mxCell id="DCxlnjc3I_5zTgTbIcl2-107" value="" style="rounded=1;whiteSpace=wrap;html=1;arcSize=5;" vertex="1" parent="DCxlnjc3I_5zTgTbIcl2-99">
          <mxGeometry x="22" y="20" width="80" height="210" as="geometry" />
        </mxCell>
        <mxCell id="DCxlnjc3I_5zTgTbIcl2-108" value="" style="shape=image;verticalLabelPosition=bottom;labelBackgroundColor=default;verticalAlign=top;aspect=fixed;imageAspect=0;image=https://www.logolynx.com/images/logolynx/b4/b4a73eafe10f92143248c2d31a91331e.png;" vertex="1" parent="DCxlnjc3I_5zTgTbIcl2-99">
          <mxGeometry x="20" y="204.25" width="40" height="27.49" as="geometry" />
        </mxCell>
        <mxCell id="DCxlnjc3I_5zTgTbIcl2-109" value="React App&lt;br&gt;Reverse Proxy" style="sketch=0;pointerEvents=1;shadow=0;dashed=0;html=1;strokeColor=none;fillColor=#505050;labelPosition=center;verticalLabelPosition=bottom;verticalAlign=top;outlineConnect=0;align=center;shape=mxgraph.office.servers.reverse_proxy;aspect=fixed;fontSize=10;" vertex="1" parent="DCxlnjc3I_5zTgTbIcl2-99">
          <mxGeometry x="48.85000000000002" y="32.400000000000006" width="26.29" height="34" as="geometry" />
        </mxCell>
        <mxCell id="DCxlnjc3I_5zTgTbIcl2-110" value="NodeJS App&lt;br&gt;Reverse Proxy" style="sketch=0;pointerEvents=1;shadow=0;dashed=0;html=1;strokeColor=none;fillColor=#505050;labelPosition=center;verticalLabelPosition=bottom;verticalAlign=top;outlineConnect=0;align=center;shape=mxgraph.office.servers.reverse_proxy;aspect=fixed;fontSize=10;" vertex="1" parent="DCxlnjc3I_5zTgTbIcl2-99">
          <mxGeometry x="48.85000000000002" y="118" width="26.29" height="34" as="geometry" />
        </mxCell>
        <mxCell id="DCxlnjc3I_5zTgTbIcl2-111" value="React App&lt;br&gt;Process" style="sketch=0;html=1;aspect=fixed;strokeColor=none;shadow=0;fillColor=#3B8DF1;verticalAlign=top;labelPosition=center;verticalLabelPosition=bottom;shape=mxgraph.gcp2.process;fontSize=10;" vertex="1" parent="DCxlnjc3I_5zTgTbIcl2-99">
          <mxGeometry x="134.2" y="30" width="33.6" height="40" as="geometry" />
        </mxCell>
        <mxCell id="DCxlnjc3I_5zTgTbIcl2-112" value="NodeJS App&lt;br&gt;Process" style="sketch=0;html=1;aspect=fixed;strokeColor=none;shadow=0;fillColor=#3B8DF1;verticalAlign=top;labelPosition=center;verticalLabelPosition=bottom;shape=mxgraph.gcp2.process;fontSize=10;" vertex="1" parent="DCxlnjc3I_5zTgTbIcl2-99">
          <mxGeometry x="134.2" y="118" width="33.6" height="40" as="geometry" />
        </mxCell>
        <mxCell id="DCxlnjc3I_5zTgTbIcl2-113" value="" style="image;aspect=fixed;html=1;points=[];align=center;fontSize=12;image=img/lib/azure2/compute/Virtual_Machines_Classic.svg;container=0;" vertex="1" parent="DCxlnjc3I_5zTgTbIcl2-99">
          <mxGeometry y="260" width="32.34" height="30" as="geometry" />
        </mxCell>
        <mxCell id="DCxlnjc3I_5zTgTbIcl2-89" value="" style="edgeStyle=orthogonalEdgeStyle;rounded=0;orthogonalLoop=1;jettySize=auto;html=1;startArrow=classic;startFill=1;exitX=1;exitY=0.25;exitDx=0;exitDy=0;" edge="1" parent="1" source="DCxlnjc3I_5zTgTbIcl2-100" target="DCxlnjc3I_5zTgTbIcl2-16">
          <mxGeometry relative="1" as="geometry">
            <mxPoint x="627" y="270" as="sourcePoint" />
            <mxPoint x="730" y="388" as="targetPoint" />
          </mxGeometry>
        </mxCell>
      </root>
    </mxGraphModel>
  </diagram>
</mxfile>
